<?xml version="1.0" encoding="UTF-8" standalone="no"?>
<!-- Created with Inkscape (http://www.inkscape.org/) -->

<svg
   width="500"
   height="500"
   viewBox="0 0 132.29166 132.29167"
   version="1.1"
   id="svg1"
   inkscape:version="1.3.2 (091e20e, 2023-11-25, custom)"
   sodipodi:docname="IconeMAquinaDeLavar.svg"
   xmlns:inkscape="http://www.inkscape.org/namespaces/inkscape"
   xmlns:sodipodi="http://sodipodi.sourceforge.net/DTD/sodipodi-0.dtd"
   xmlns="http://www.w3.org/2000/svg"
   xmlns:svg="http://www.w3.org/2000/svg">
  <sodipodi:namedview
     id="namedview1"
     pagecolor="#ffffff"
     bordercolor="#000000"
     borderopacity="0.25"
     inkscape:showpageshadow="2"
     inkscape:pageopacity="0.0"
     inkscape:pagecheckerboard="0"
     inkscape:deskcolor="#d1d1d1"
     inkscape:document-units="mm"
     inkscape:zoom="1.2861282"
     inkscape:cx="197.88075"
     inkscape:cy="330.06042"
     inkscape:window-width="1920"
     inkscape:window-height="991"
     inkscape:window-x="-9"
     inkscape:window-y="-9"
     inkscape:window-maximized="1"
     inkscape:current-layer="layer1" />
  <defs
     id="defs1" />
  <g
     inkscape:label="Camada 1"
     inkscape:groupmode="layer"
     id="layer1">
    <path
       d="M 29.432312,50.455835 V 123.84567 H 100.14686 V 50.455835 Z M 65.570675,68.42063 A 24.417917,22.361006 0 0 1 89.988822,90.782056 24.417917,22.361006 0 0 1 65.570675,113.14296 24.417917,22.361006 0 0 1 41.153044,90.782056 24.417917,22.361006 0 0 1 65.570675,68.42063 Z"
       style="fill:#0b0b0b;stroke:#000000;stroke-width:0.264998;stroke-linejoin:round;paint-order:stroke fill markers"
       id="path16" />
    <path
       d="m 29.609045,40.135018 v 9.174117 h 70.596205 v -9.174117 z m 7.757666,1.529106 a 2.3273463,2.1023166 0 0 1 2.327507,2.102197 2.3273463,2.1023166 0 0 1 -2.327507,2.102197 2.3273463,2.1023166 0 0 1 -2.327506,-2.102197 2.3273463,2.1023166 0 0 1 2.327506,-2.102197 z"
       style="fill:#0b0b0b;stroke:#000000;stroke-width:0.264998;stroke-linejoin:round;paint-order:stroke fill markers"
       id="path15" />
    <rect
       style="fill:#ffffff;stroke:#000000;stroke-width:0.264999;stroke-linejoin:round;paint-order:stroke fill markers"
       id="rect16"
       width="15.840503"
       height="1.8514873"
       x="41.761326"
       y="41.76133" />
    <rect
       style="fill:#f9f9f9;stroke:#000000;stroke-width:0.264999;stroke-linejoin:round;paint-order:stroke fill markers"
       id="rect16-7"
       width="15.840503"
       height="1.8514873"
       x="41.61322"
       y="44.934479" />
    <ellipse
       style="fill:#000000;stroke:#000000;stroke-width:0.26501;stroke-linejoin:round;paint-order:stroke fill markers"
       id="path17"
       cx="65.630226"
       cy="89.683853"
       rx="19.545055"
       ry="18.51457"
       transform="matrix(0.99991939,0.01269686,0,1,0,0)" />
  </g>
</svg>
