<?xml version="1.0" encoding="UTF-8" standalone="no"?>
<!-- Created with Inkscape (http://www.inkscape.org/) -->

<svg
   width="500"
   height="500"
   viewBox="0 0 132.29166 132.29167"
   version="1.1"
   id="svg1"
   inkscape:version="1.3.2 (091e20e, 2023-11-25, custom)"
   sodipodi:docname="RequesicaoBook2.svg"
   xmlns:inkscape="http://www.inkscape.org/namespaces/inkscape"
   xmlns:sodipodi="http://sodipodi.sourceforge.net/DTD/sodipodi-0.dtd"
   xmlns="http://www.w3.org/2000/svg"
   xmlns:svg="http://www.w3.org/2000/svg">
  <sodipodi:namedview
     id="namedview1"
     pagecolor="#ffffff"
     bordercolor="#000000"
     borderopacity="0.25"
     inkscape:showpageshadow="2"
     inkscape:pageopacity="0.0"
     inkscape:pagecheckerboard="0"
     inkscape:deskcolor="#d1d1d1"
     inkscape:document-units="mm"
     inkscape:zoom="1.9506277"
     inkscape:cx="283.24216"
     inkscape:cy="248.89424"
     inkscape:window-width="1920"
     inkscape:window-height="991"
     inkscape:window-x="-9"
     inkscape:window-y="-9"
     inkscape:window-maximized="1"
     inkscape:current-layer="layer1" />
  <defs
     id="defs1" />
  <g
     inkscape:label="Camada 1"
     inkscape:groupmode="layer"
     id="layer1">
    <path
       d="m 42.954484,10.032979 c -2.024268,0 -3.893862,0.681932 -5.433777,1.839165 0.526198,-0.101455 1.064582,-0.165365 1.617473,-0.165365 h 56.39294 c 5.20694,0 9.39839,4.688089 9.39839,10.510986 v 92.170085 c 0,2.35984 -0.6969,4.52561 -1.86242,6.2761 3.82467,-1.33985 6.5779,-5.21353 6.5779,-9.81387 v -90.4968 c 0,-5.717189 -4.24898,-10.320301 -9.52707,-10.320301 z"
       style="stroke:#000000;stroke-width:0.265604;stroke-linejoin:round;paint-order:stroke fill markers"
       id="path2" />
    <path
       d="m 37.535693,90.52419 v 2.421558 H 90.701957 V 90.52419 Z"
       style="fill:#ffffff;stroke:#000000;stroke-width:0.264974;stroke-linejoin:round;paint-order:stroke fill markers"
       id="path14" />
    <path
       d="m 37.018929,82.430627 v 2.421041 h 53.545569 v -2.421041 z"
       style="fill:#ffffff;stroke:#000000;stroke-width:0.264974;stroke-linejoin:round;paint-order:stroke fill markers"
       id="path13" />
    <path
       d="m 36.570378,74.369621 v 2.421041 h 54.114526 v -2.421041 z"
       style="fill:#ffffff;stroke:#000000;stroke-width:0.264974;stroke-linejoin:round;paint-order:stroke fill markers"
       id="path12" />
    <path
       d="m 36.798787,66.449174 v 2.421041 h 53.924874 v -2.421041 z"
       style="fill:#ffffff;stroke:#000000;stroke-width:0.264974;stroke-linejoin:round;paint-order:stroke fill markers"
       id="path11" />
    <path
       d="m 37.256124,58.540096 v 2.421041 h 53.240161 v -2.421041 z"
       style="fill:#ffffff;stroke:#000000;stroke-width:0.264974;stroke-linejoin:round;paint-order:stroke fill markers"
       id="path10" />
    <path
       d="m 37.539827,51.117293 v 2.421558 h 52.927519 v -2.421558 z"
       style="fill:#ffffff;stroke:#000000;stroke-width:0.264974;stroke-linejoin:round;paint-order:stroke fill markers"
       id="path9" />
    <path
       d="m 37.558431,43.158606 v 2.421041 h 53.166781 v -2.421041 z"
       style="fill:#ffffff;stroke:#000000;stroke-width:0.264974;stroke-linejoin:round;paint-order:stroke fill markers"
       id="path8" />
    <path
       d="m 37.282479,33.582963 v 2.421041 h 53.16678 v -2.421041 z"
       style="fill:#ffffff;stroke:#000000;stroke-width:0.264974;stroke-linejoin:round;paint-order:stroke fill markers"
       id="path7" />
    <path
       d="m 37.090243,12.220443 c 0.141125,-0.119385 0.283079,-0.23754 0.430464,-0.348299 -0.478704,0.0923 -0.944146,0.222681 -1.394747,0.392224 0.252746,-0.02373 0.506537,-0.04392 0.764811,-0.04392 z"
       style="fill:#ffffff;stroke:#000000;stroke-width:0.264974;stroke-linejoin:round;paint-order:stroke fill markers"
       id="path5" />
    <path
       d="m 36.12596,12.264368 c -4.717383,0.443005 -8.402588,4.930956 -8.402588,10.447941 V 114.7191 c 0,5.81257 4.088536,10.49238 9.167399,10.49238 h 55.005945 c 0.75899,0 1.491813,-0.11597 2.196249,-0.31316 H 39.13818 c -5.20694,0 -9.39891,-4.68757 -9.39891,-10.51047 V 22.217765 c 0,-4.642112 2.667969,-8.554198 6.38669,-9.953397 z"
       style="stroke:#000000;stroke-width:0.268533;stroke-linejoin:round;paint-order:stroke fill markers"
       id="path6" />
    <path
       d="m 99.126766,121.16986 c 1.211014,-1.77807 1.937864,-4.01169 1.937864,-6.45076 V 22.712309 c 0,-5.81257 -4.089049,-10.491866 -9.167914,-10.491866 H 37.090243 c -2.229007,1.885623 -3.662826,4.818182 -3.662826,8.132837 v 90.4968 c 0,5.71719 4.248977,10.31978 9.527067,10.31978 z M 37.282479,33.582963 h 53.16678 v 2.421041 h -53.16678 z m 0.275952,9.575643 h 53.166781 v 2.421041 H 37.558431 Z m -0.0186,7.958687 h 52.927519 v 2.421558 H 37.539827 Z m -0.283703,7.422803 h 53.240161 v 2.421041 H 37.256124 Z m -0.457337,7.909078 h 53.924874 v 2.421041 H 36.798787 Z m -0.228409,7.920447 h 54.114526 v 2.421041 H 36.570378 Z m 0.448551,8.061006 h 53.545569 v 2.421041 H 37.018929 Z m 0.516764,8.093563 h 53.166264 v 2.421558 H 37.535693 Z"
       style="stroke:#000000;stroke-width:0.268533;stroke-linejoin:round;paint-order:stroke fill markers"
       id="path4" />
    <path
       d="M 99.126766,121.16986 H 42.954484 c -5.27809,0 -9.527067,-4.60259 -9.527067,-10.31978 v -90.4968 c 0,-3.314655 1.433819,-6.247214 3.662826,-8.132837 h -0.199472 c -0.258274,0 -0.512065,0.02019 -0.764811,0.04392 -3.718721,1.399199 -6.38669,5.311285 -6.38669,9.953397 v 92.170085 c 0,5.8229 4.19197,10.51047 9.39891,10.51047 h 54.954785 c 2.031365,-0.56862 3.79012,-1.90242 5.033801,-3.72846 z"
       style="stroke:#000000;stroke-width:0.268533;stroke-linejoin:round;paint-order:stroke fill markers"
       id="path3" />
  </g>
</svg>
